<svg width="221" height="67" viewBox="0 0 221 67" fill="none" xmlns="http://www.w3.org/2000/svg">
<g clip-path="url(#clip0)">
<path d="M8.73095 60.7729C8.13608 60.7729 7.60377 60.5726 7.20422 60.1932C6.80466 59.8147 6.59411 59.339 6.59411 58.8197V52.8043H20.4189V46.6996H6.59411V38.7905H0V59.1862C0 60.2821 0.223579 61.3023 0.671384 62.238C1.11919 63.174 1.72348 64.0017 2.47279 64.7106C3.22197 65.4186 4.11487 65.9867 5.12878 66.3898C6.14179 66.7928 7.22512 66.9999 8.36456 66.9999H26.2189V60.7729H8.73083H8.73095ZM134.962 66.9054H128.357V55.6998H111.101V66.9054H104.497V38.9086H111.101V50.0837H128.357V38.9086H134.962V66.9054V66.9054ZM36.356 58.7859C36.356 59.3362 36.5794 59.8342 37.0274 60.2208C37.4752 60.6073 38.0248 60.8005 38.6759 60.8005H60.3511V66.9054H38.1264C37.0368 66.9054 35.9745 66.7076 34.9824 66.3257C33.9894 65.9435 33.1098 65.3999 32.3567 64.7077C31.6039 64.0156 31.0088 63.2173 30.5863 62.3269C30.1636 61.4355 29.9453 60.4549 29.9453 59.3965V46.3937C29.9453 45.3352 30.1636 44.3444 30.5863 43.4332C31.0088 42.5225 31.609 41.7193 32.3567 41.0524C33.1053 40.3853 33.9851 39.8511 34.9824 39.4647C35.9798 39.078 37.0275 38.8849 38.1264 38.8849H52.3523C53.6143 38.8849 54.7544 39.0982 55.7721 39.526C56.7895 39.9536 57.6541 40.5332 58.3665 41.2657C59.079 41.9984 59.6285 42.8628 60.0152 43.86C60.4017 44.8572 60.5956 45.9358 60.5956 47.0649V55.6998H36.3561V58.7859H36.356ZM54.0619 47.0044C54.0619 46.434 53.8486 45.9561 53.4209 45.5695C52.9932 45.1831 52.4452 44.9898 51.8025 44.9898H38.6758C38.0341 44.9898 37.4801 45.1882 37.0574 45.5695C36.6357 45.951 36.4164 46.4442 36.4164 47.0044V50.0839H54.0617V47.0044H54.0619ZM75.5127 66.9054C74.3821 66.9054 73.28 66.6971 72.267 66.2945C71.2545 65.8921 70.3575 65.3355 69.601 64.6463C68.8504 63.9612 68.2423 63.1365 67.7994 62.2047C67.356 61.2733 67.1283 60.2718 67.1283 59.2134V46.5768C67.1283 45.5183 67.3516 44.5211 67.7994 43.5852C68.2472 42.6494 68.8502 41.8289 69.601 41.1438C70.3575 40.4546 71.2545 39.8979 72.267 39.4955C73.28 39.0932 74.3633 38.8848 75.5127 38.8848H89.6376C90.7871 38.8848 91.8703 39.0932 92.8833 39.4955C93.8958 39.8979 94.7928 40.4537 95.5493 41.1438C96.2993 41.8281 96.9031 42.6493 97.3509 43.5852C97.7988 44.5211 98.0221 45.5277 98.0221 46.5768V49.507H91.428V46.8817C91.428 46.3937 91.2195 45.9515 90.8171 45.5695C90.4149 45.188 89.892 44.9898 89.2912 44.9898H75.8587C75.2573 44.9898 74.7345 45.1873 74.3319 45.5695C73.9295 45.951 73.722 46.403 73.722 46.8817V58.9086C73.722 59.3871 73.9295 59.8394 74.3319 60.2207C74.7345 60.6028 75.2477 60.8004 75.8587 60.8004H89.2912C89.9013 60.8004 90.4149 60.602 90.8171 60.2207C91.2195 59.8384 91.428 59.3965 91.428 58.9086V55.9169H98.0221V59.1521C98.0221 60.2013 97.7935 61.2222 97.3509 62.174C96.9073 63.1258 96.2994 63.9623 95.5493 64.6465C94.7928 65.3366 93.8958 65.8923 92.8833 66.2946C91.8703 66.6972 90.7777 66.9055 89.6376 66.9055H75.5127V66.9054Z" fill="#1E1E1E"/>
<path d="M75.378 28.2072C74.2285 28.2072 73.1496 28.0039 72.1322 27.5966C71.1147 27.1899 70.229 26.6406 69.466 25.9482C68.7124 25.2568 68.1125 24.4428 67.6647 23.5068C67.2168 22.5702 66.9933 21.5737 66.9933 20.5152V7.87861C66.9933 6.82035 67.2168 5.82297 67.6647 4.88725C68.1125 3.95127 68.7123 3.13732 69.466 2.44566C70.229 1.75361 71.1147 1.20422 72.1322 0.797506C73.1496 0.390015 74.2287 0.186593 75.378 0.186593H89.5026C90.6523 0.186593 91.7311 0.389886 92.7486 0.797506C93.766 1.20409 94.6517 1.75348 95.4147 2.44566C96.1674 3.13732 96.7681 3.95114 97.2161 4.88725C97.6639 5.82297 97.8874 6.82035 97.8874 7.87861V10.809H91.2932V8.18368C91.2932 7.69557 91.0899 7.25789 90.6825 6.8713C90.2758 6.48496 89.7666 6.29186 89.1565 6.29186H75.7238C75.113 6.29186 74.6046 6.48496 74.1972 6.8713C73.7905 7.25789 73.5871 7.69557 73.5871 8.18368V20.2104C73.5871 20.6985 73.7904 21.1361 74.1972 21.5225C74.6045 21.9091 75.113 22.1022 75.7238 22.1022H89.1565C89.7666 22.1022 90.2757 21.9091 90.6825 21.5225C91.0898 21.1361 91.2932 20.6985 91.2932 20.2104V17.219H97.8874V20.4542C97.8874 21.5125 97.6639 22.5198 97.2161 23.4759C96.7681 24.4326 96.1676 25.2569 95.4147 25.9483C94.6517 26.6406 93.766 27.1898 92.7486 27.5967C91.7311 28.0039 90.6521 28.2073 89.5026 28.2073L75.378 28.2072ZM221 20.2968C221 21.4001 220.775 22.4326 220.326 23.3943C219.876 24.3539 219.272 25.1925 218.516 25.9078C217.76 26.6231 216.869 27.1868 215.847 27.5944C214.827 28.0016 213.737 28.2071 212.597 28.2071H193.612V21.9523H212.229C212.843 21.9523 213.357 21.7648 213.763 21.4006C214.169 21.036 214.376 20.562 214.376 19.9889V17.1465H198.368C197.226 17.1465 196.14 16.9518 195.117 16.5639C194.095 16.1753 193.205 15.6322 192.449 14.9386C191.694 14.2444 191.089 13.4253 190.64 12.485C190.192 11.5463 189.967 10.5231 189.967 9.41995V0.059534H196.589V9.05142C196.589 9.62118 196.795 10.0948 197.203 10.4625C197.61 10.8289 198.123 11.0142 198.736 11.0142H214.376V0.059663H221L221 20.2968ZM8.73095 6.22685C8.12588 6.22685 7.60661 6.42498 7.20421 6.80641C6.80247 7.18785 6.59411 7.65867 6.59411 8.17994V14.1954H20.4189V20.3003H6.59411V28.2094H0V7.81372C0 6.71483 0.22358 5.69746 0.671384 4.76161C1.11919 3.82589 1.72052 3.0002 2.47279 2.28919C3.22416 1.57818 4.11268 1.01576 5.12878 0.60995C6.14476 0.204781 7.22511 -6.10352e-05 8.36456 -6.10352e-05H26.2189V6.22685H8.73095ZM53.9214 8.22973C53.9214 7.66667 53.7001 7.19223 53.2572 6.81015C52.8144 6.42782 52.2686 6.23691 51.626 6.23691H42.2377H33.0693V5.92526V0.197428H38.4264H42.2377H52.1707C53.2573 0.197428 54.2945 0.389242 55.2808 0.770805C56.2681 1.15224 57.1328 1.68717 57.8777 2.37136C58.6225 3.05644 59.2068 3.84085 59.6293 4.72626C60.0519 5.61168 60.2633 6.57926 60.2633 7.62475V18.6963V18.7453V20.3402V22.1686V23.3447V28.2072H38.0992C36.8509 28.2072 35.7231 27.9959 34.7156 27.5733C33.7097 27.1502 32.8537 26.5769 32.1499 25.8523C31.4447 25.1276 30.9014 24.2718 30.5187 23.2861C30.1617 22.3654 29.9722 21.3827 29.9484 20.34H29.9446V20.1686V20.1152V19.4093V19.3559C29.9518 18.2501 30.143 17.2096 30.5187 16.2384C30.9016 15.2525 31.4447 14.3969 32.1499 13.6722C32.8535 12.9468 33.709 12.3736 34.7156 11.9518C35.7231 11.5285 36.8502 11.318 38.0992 11.318H51.0117H52.1707H52.198H52.2268H53.9215L53.9214 8.22973ZM53.9214 22.1686V20.5032V20.3402V19.349V19.3228V17.3558H51.7169H51.6874H50.3592H38.6421C37.9982 17.3558 37.4623 17.5476 37.0412 17.9298C36.6193 18.3106 36.4073 18.785 36.4073 19.349V20.1767C36.4721 20.7354 36.6192 21.2133 37.0412 21.5949C37.4623 21.9763 37.9982 22.1688 38.6421 22.1688L53.9214 22.1686ZM135.885 28.2072C134.736 28.2072 133.656 28.0033 132.638 27.5966C131.621 27.1899 130.733 26.6425 129.972 25.9482C129.218 25.2597 128.619 24.432 128.171 23.4757C127.723 22.5198 127.499 21.5125 127.499 20.4541V7.87848C127.499 6.82022 127.723 5.82284 128.171 4.88712C128.619 3.95114 129.218 3.13422 129.972 2.44553C130.733 1.75141 131.621 1.20409 132.638 0.797377C133.656 0.390789 134.735 0.186464 135.885 0.186464H150.009C151.158 0.186464 152.237 0.39066 153.255 0.797377C154.272 1.20396 155.161 1.75141 155.921 2.44553C156.676 3.13422 157.274 3.95101 157.722 4.88712C158.17 5.82284 158.394 6.82073 158.394 7.87848V20.4541C158.394 21.5119 158.169 22.5196 157.722 23.4757C157.274 24.4318 156.676 25.2597 155.921 25.9482C155.161 26.6425 154.272 27.1897 153.255 27.5966C152.237 28.0032 151.158 28.2072 150.009 28.2072H135.885ZM151.799 8.18368C151.799 7.69557 151.596 7.25712 151.189 6.8713C150.783 6.48496 150.273 6.29186 149.663 6.29186H136.23C135.621 6.29186 135.111 6.48574 134.704 6.8713C134.297 7.25789 134.093 7.69634 134.093 8.18368V20.2104C134.093 20.6977 134.297 21.1361 134.704 21.5225C135.111 21.9083 135.62 22.1022 136.23 22.1022H149.663C150.273 22.1022 150.783 21.9091 151.189 21.5225C151.596 21.137 151.799 20.6985 151.799 20.2104V8.18368ZM173.254 6.29173C172.694 6.29173 172.183 6.48767 171.758 6.87117C171.334 7.25544 171.117 7.71762 171.117 8.24495V28.2071H164.523V7.69544C164.523 6.63705 164.747 5.65063 165.194 4.73478C165.642 3.81905 166.243 3.02535 166.996 2.35407C167.749 1.68279 168.634 1.15275 169.652 0.766419C170.669 0.379954 171.748 0.186593 172.888 0.186593H184.137V6.29173H173.254Z" fill="#1E1E1E"/>
<path d="M100.255 28.2072L116.434 0.186584H124.667L108.492 28.1977L100.255 28.2072Z" fill="#9912EC"/>
<path d="M100.255 28.2072L116.434 0.186584H124.667L108.492 28.1977L100.255 28.2072Z" fill="url(#paint0_linear)"/>
</g>
<defs>
<linearGradient id="paint0_linear" x1="112.461" y1="0.186584" x2="112.461" y2="28.2072" gradientUnits="userSpaceOnUse">
<stop stop-color="#235DE2"/>
<stop offset="0.0001" stop-color="#235DE2"/>
<stop offset="0.515525" stop-color="#464FDA"/>
<stop offset="0.515625" stop-color="#F3A72D"/>
<stop offset="1" stop-color="#F3A72D"/>
</linearGradient>
<clipPath id="clip0">
<rect width="221" height="67" fill="white"/>
</clipPath>
</defs>
</svg>
