<svg width="55" height="55" viewBox="0 0 55 55" fill="none" xmlns="http://www.w3.org/2000/svg">
<path d="M44.6875 55H10.3125C4.61656 55 0 50.3834 0 44.6875V10.3125C0 4.61656 4.61656 0 10.3125 0H44.6875C50.3834 0 55 4.61656 55 10.3125V44.6875C55 50.3834 50.3834 55 44.6875 55Z" fill="white"/>
<path d="M36.8935 39C36.8385 39 36.7821 38.9973 36.7271 38.9931C26.2401 38.1819 17.7633 29.7078 17.0056 19.2839C16.963 18.6995 17.1638 18.1206 17.557 17.6944C17.9475 17.2709 18.481 17.0357 19.0571 17.0316L23.3677 17C24.3247 17 25.1525 17.6421 25.3835 18.562L26.2841 22.1384C26.4876 22.9483 26.1851 23.7925 25.5141 24.2916L23.783 25.5814C25.2762 28.3218 27.5724 30.629 30.3293 32.1621L31.6685 30.3898C32.1704 29.7256 33.016 29.4259 33.8273 29.628L37.4284 30.5217C38.3538 30.75 39 31.5736 39 32.5238V36.9361C39 37.5123 38.7663 38.0444 38.3428 38.4363C37.9509 38.7992 37.4311 39 36.8935 39Z" fill="#1F2225"/>
</svg>
