<svg width="53" height="52" viewBox="0 0 53 52" fill="none" xmlns="http://www.w3.org/2000/svg">
<path d="M27.8353 23.1713V41.101H24.2881V21.9233L27.8353 23.1713Z" fill="black"/>
<path d="M14.2726 21.5906C14.1474 16.9314 16.6096 14.5186 19.823 14.5186C21.7844 14.5186 23.2868 15.1426 26.4585 16.6402C28.7955 17.7634 30.5065 18.5954 32.2592 18.5954C33.9285 18.5954 34.7215 17.2226 34.7632 14.685H37.5592C37.8096 19.885 35.1388 21.757 32.2175 21.757C30.3396 21.757 28.6703 21.2162 25.4569 19.7186C23.2451 18.637 21.534 17.6802 19.8648 17.6802C18.1955 17.6802 17.1522 18.845 17.1104 21.6738H14.2726V21.5906Z" fill="black"/>
<path d="M26.3331 50.9601C40.1389 50.9601 51.3307 39.8037 51.3307 26.0417C51.3307 12.2796 40.1389 1.12329 26.3331 1.12329C12.5273 1.12329 1.33545 12.2796 1.33545 26.0417C1.33545 39.8037 12.5273 50.9601 26.3331 50.9601Z" stroke="black" stroke-width="2" stroke-miterlimit="10"/>
</svg>
